#!OML:ASF H:\BabyWalks\Project 1\Capture day 1\Session 1\baby.ASF
:FULLY-SPECIFIED
:DEGREES
986
root 21.4082 10.0409 -0.0770043 -589.668 80.9376 -622.345
lowerback 40.1597 -3.17497 10.1915
upperback 6.9742 1.8046 3.22132
thorax -11.3826 0.935906 -2.61239
lowerneck -3.85622 -2.60773 5.27677
upperneck -22.8245 -4.18186 -7.38511
head -6.54611 -1.57232 -3.14747
rclavicle 1.59028e-014 -2.94201e-014
rhumerus 25.9759 4.27637 -71.8599
rradius 24.5967
rwrist 47.4814
rhand -67.5846 305.681
rfingers 7.12502
rthumb -39.3379 -79.7417
lclavicle 1.59028e-014 -2.94201e-014
lhumerus 26.3592 -34.7405 72.5808
lradius 36.2291
lwrist -24.6807
lhand -2.05082 -2.42256
lfingers 7.12502
lthumb 23.6246 26.146
rfemur -44.9045 -7.32796 7.53129
rtibia 131.924
rfoot -13.1896 15.0422
rtoes -19.057
lfemur -29.4363 0.900943 -16.1929
ltibia 108.227
lfoot 3.92708 -15.0353
ltoes 10.1793
987
root 21.3962 10.0663 -0.0316772 -588.523 80.4151 -620.595
lowerback 40.3137 -3.09951 10.1622
upperback 7.04953 1.91896 3.21116
thorax -11.3382 0.999994 -2.6571
lowerneck -3.97194 -2.81326 4.93579
upperneck -22.9869 -4.47986 -7.44807
head -6.59383 -1.67166 -3.10048
rclavicle -2.22639e-014 -3.10104e-014
rhumerus 25.6996 2.91028 -71.999
rradius 23.8955
rwrist 48.3359
rhand -67.526 304.444
rfingers 7.12502
rthumb -39.2827 -80.9944
lclavicle -2.22639e-014 -3.10104e-014
lhumerus 28.2049 -35.6446 70.8572
lradius 37.6476
lwrist -23.4872
lhand 1.36611 -0.941334
lfingers 7.12502
lthumb 26.8982 27.1648
rfemur -44.2184 -7.53232 7.25226
rtibia 131.477
rfoot -14.7531 14.1198
rtoes -21.188
lfemur -29.8384 0.0963592 -15.8808
ltibia 109.276
lfoot 2.63654 -14.4149
ltoes 9.8985
988
root 21.3806 10.0925 0.0155579 -587.099 79.8438 -618.555
lowerback 40.4996 -3.04673 10.127
upperback 7.12621 2.01183 3.20814
thorax -11.305 1.05551 -2.68201
lowerneck -4.05728 -3.04003 4.58852
upperneck -23.1718 -4.8051 -7.49701
head -6.65513 -1.78256 -3.04641
rclavicle -4.45278e-014 -6.59965e-014
rhumerus 25.4647 1.52336 -72.0917
rradius 23.2129
rwrist 49.1919
rhand -67.4463 303.456
rfingers 7.12502
rthumb -39.2076 -82.0045
lclavicle -4.45278e-014 -6.59965e-014
lhumerus 30.1494 -36.3671 69.0237
lradius 39.1038
lwrist -22.2949
lhand 4.46705 0.483974
lfingers 7.12502
lthumb 29.8615 28.0962
rfemur -43.4885 -7.85438 6.97146
rtibia 131.038
rfoot -16.0946 13.3435
rtoes -22.383
lfemur -30.4001 -0.783251 -15.4592
ltibia 110.437
lfoot 1.24622 -13.6653
ltoes 9.56096
989
root 21.3622 10.1198 0.0646817 -585.459 79.2361 -616.304
lowerback 40.7014 -3.00576 10.0855
upperback 7.202 2.09456 3.21949
thorax -11.2794 1.10721 -2.68404
lowerneck -4.10806 -3.28476 4.25332
upperneck -23.3741 -5.15616 -7.5471
head -6.72954 -1.90477 -2.99314
rclavicle -4.77083e-014 -5.725e-014
rhumerus 25.2687 0.0629055 -72.175
rradius 22.547
rwrist 50.117
rhand -67.3513 302.788
rfingers 7.12502
rthumb -39.1181 -82.6977
lclavicle -4.77083e-014 -5.725e-014
lhumerus 32.1406 -36.907 67.1009
lradius 40.6208
lwrist -21.046
lhand 7.09975 1.75937
lfingers 7.12502
lthumb 32.3706 28.8903
rfemur -42.7395 -8.26462 6.70222
rtibia 130.623
rfoot -17.1821 12.7606
rtoes -22.8586
lfemur -31.1374 -1.68745 -14.897
ltibia 111.703
lfoot -0.260819 -12.767
ltoes 9.15448
990
root 21.3413 10.1478 0.115521 -583.671 78.6037 -613.919
lowerback 40.9096 -2.96476 10.0414
upperback 7.27456 2.18132 3.24683
thorax -11.2599 1.16088 -2.66943
lowerneck -4.12328 -3.54682 3.95623
upperneck -23.5825 -5.53553 -7.61455
head -6.81476 -2.041 -2.94991
rclavicle -4.77083e-014 -5.48646e-014
rhumerus 25.1073 -1.52713 -72.2805
rradius 21.8922
rwrist 51.1741
rhand -67.2488 302.439
rfingers 7.12502
rthumb -39.0215 -83.0751
lclavicle -4.77083e-014 -5.48646e-014
lhumerus 34.1302 -37.2778 65.1123
lradius 42.2245
lwrist -19.6971
lhand 9.09022 2.78103
lfingers 7.12502
lthumb 34.2629 29.506
rfemur -41.9875 -8.74208 6.45977
rtibia 130.244
rfoot -18.0297 12.361
rtoes -22.8646
lfemur -32.0587 -2.57574 -14.1724
ltibia 113.06
lfoot -1.8835 -11.7076
ltoes 8.73954
991
root 21.3179 10.1763 0.167772 -581.779 77.9644 -611.449
lowerback 41.1238 -2.91994 10.0043
upperback 7.3403 2.28003 3.28881
thorax -11.249 1.21922 -2.64788
lowerneck -4.10867 -3.82052 3.70043
upperneck -23.7807 -5.93513 -7.69786
head -6.90422 -2.18851 -2.91684
rclavicle 1.59028e-014 -1.27222e-014
rhumerus 24.9818 -3.28111 -72.4409
rradius 21.2436
rwrist 52.422
rhand -67.1491 302.366
rfingers 7.12502
rthumb -38.9274 -83.1743
lclavicle 1.59028e-014 -1.27222e-014
lhumerus 36.0612 -37.4831 63.0839
lradius 43.9469
lwrist -18.2336
lhand 10.3227 3.46042
lfingers 7.12502
lthumb 35.4324 29.9144
rfemur -41.2485 -9.26356 6.27275
rtibia 129.913
rfoot -18.6752 12.0316
rtoes -22.0973
lfemur -33.1708 -3.39903 -13.2588
ltibia 114.489
lfoot -3.60888 -10.4947
ltoes 8.30966
992
root 21.2923 10.205 0.220859 -579.874 77.319 -608.982
lowerback 41.346 -2.87514 9.96353
upperback 7.40225 2.38097 3.34055
thorax -11.2452 1.27843 -2.61519
lowerneck -4.0684 -4.09337 3.47499
upperneck -23.9649 -6.33581 -7.78845
head -6.99444 -2.33797 -2.89008
rclavicle -3.49861e-014 -1.90833e-014
rhumerus 24.9043 -5.16961 -72.6707
rradius 20.6054
rwrist 53.8607
rhand -67.0378 302.588
rfingers 7.12502
rthumb -38.8225 -82.9825
lclavicle -3.49861e-014 -1.90833e-014
lhumerus 37.8846 -37.5079 61.0338
lradius 45.8091
lwrist -16.6694
lhand 10.744 3.74806
lfingers 7.12502
lthumb 35.8317 30.1058
rfemur -40.52 -9.82781 6.12902
rtibia 129.636
rfoot -19.1643 11.7412
rtoes -20.7401
lfemur -34.4603 -4.12359 -12.1664
ltibia 115.96
lfoot -5.41482 -9.14382
ltoes 7.92438
993
root 21.2664 10.2342 0.273804 -578.123 76.682 -606.637
lowerback 41.6237 -2.83322 9.91324
upperback 7.47008 2.48397 3.39022
thorax -11.2521 1.33941 -2.58105
lowerneck -4.00582 -4.36302 3.26992
upperneck -24.1302 -6.73151 -7.8707
head -7.08226 -2.48731 -2.86296
rclavicle -6.04305e-014 -1.04958e-013
rhumerus 24.8767 -7.14206 -72.9578
rradius 19.9878
rwrist 55.4494
rhand -66.8937 303.121
rfingers 7.12502
rthumb -38.6866 -82.488
lclavicle -6.04305e-014 -1.04958e-013
lhumerus 39.5758 -37.357 58.9759
lradius 47.8154
lwrist -15.0503
lhand 10.3713 3.62721
lfingers 7.12502
lthumb 35.4785 30.0702
rfemur -39.7391 -10.3865 6.0111
rtibia 129.396
rfoot -19.544 11.5057
rtoes -19.2217
lfemur -35.8356 -4.70567 -10.9254
ltibia 117.419
lfoot -7.28872 -7.68403
ltoes 7.56181
994
root 21.2388 10.2628 0.326857 -576.51 76.0418 -604.45
lowerback 41.896 -2.78413 9.83433
upperback 7.54128 2.58119 3.43122
thorax -11.255 1.39889 -2.53984
lowerneck -3.92717 -4.62691 3.0903
upperneck -24.2751 -7.11636 -7.93366
head -7.16553 -2.63558 -2.83305
rclavicle 1.90833e-014 7.95139e-015
rhumerus 24.8926 -9.11744 -73.281
rradius 19.406
rwrist 57.0939
rhand -66.6946 303.952
rfingers 7.12502
rthumb -38.4988 -81.7102
lclavicle 1.90833e-014 7.95139e-015
lhumerus 41.1213 -37.0341 56.918
lradius 49.9591
lwrist -13.4621
lhand 9.32807 3.14024
lfingers 7.12502
lthumb 34.4888 29.8142
rfemur -38.9858 -10.9693 5.90895
rtibia 129.212
rfoot -19.8709 11.3212
rtoes -17.8037
lfemur -37.3715 -5.11253 -9.55892
ltibia 118.848
lfoot -9.18928 -6.17721
ltoes 7.1777
